<svg width="33" height="21" viewBox="0 0 33 21" fill="none" xmlns="http://www.w3.org/2000/svg">
<g id="logo">
<path id="quilt" d="M3.74669 8.51035C4.18869 8.51035 4.57003 8.58401 4.89069 8.73135C5.22002 8.87001 5.50169 9.09535 5.73569 9.40735V8.56235H8.28369V19.3393H5.73569V14.8673C5.47569 15.2227 5.18536 15.4913 4.86469 15.6733C4.54402 15.8467 4.17136 15.9333 3.74669 15.9333C3.15736 15.9333 2.61136 15.7817 2.10869 15.4783C1.61469 15.1663 1.22036 14.733 0.925691 14.1783C0.631025 13.615 0.483691 12.9737 0.483691 12.2543C0.483691 11.535 0.631025 10.8937 0.925691 10.3303C1.22036 9.75835 1.61469 9.31201 2.10869 8.99135C2.61136 8.67068 3.15736 8.51035 3.74669 8.51035ZM4.40969 10.7203C4.05436 10.7203 3.74236 10.8503 3.47369 11.1103C3.20502 11.3703 3.07069 11.7517 3.07069 12.2543C3.07069 12.7483 3.20069 13.1167 3.46069 13.3593C3.72936 13.5933 4.04569 13.7103 4.40969 13.7103C4.75636 13.7103 5.06402 13.5847 5.33269 13.3333C5.60136 13.0733 5.73569 12.6963 5.73569 12.2023C5.73569 11.7083 5.60136 11.34 5.33269 11.0973C5.06402 10.846 4.75636 10.7203 4.40969 10.7203ZM17.1719 8.56235V15.8553H14.6239V14.6333C14.4159 15.0233 14.1126 15.3353 13.7139 15.5693C13.3153 15.8033 12.8473 15.9203 12.3099 15.9203C11.4693 15.9203 10.8063 15.643 10.3209 15.0883C9.84427 14.525 9.60593 13.758 9.60593 12.7873V8.56235H12.1539V12.4753C12.1539 12.8913 12.2623 13.2207 12.4789 13.4633C12.7043 13.6973 13.0033 13.8143 13.3759 13.8143C13.7573 13.8143 14.0606 13.693 14.2859 13.4503C14.5113 13.2077 14.6239 12.8653 14.6239 12.4233V8.56235H17.1719ZM18.3753 6.54735C18.3753 6.16601 18.514 5.85401 18.7913 5.61135C19.0687 5.36001 19.4327 5.23435 19.8833 5.23435C20.334 5.23435 20.6937 5.36001 20.9623 5.61135C21.231 5.85401 21.3653 6.16601 21.3653 6.54735C21.3653 6.91135 21.2267 7.21468 20.9493 7.45735C20.6807 7.70001 20.3253 7.82135 19.8833 7.82135C19.4327 7.82135 19.0687 7.70001 18.7913 7.45735C18.514 7.21468 18.3753 6.91135 18.3753 6.54735ZM21.1443 8.56235V15.8553H18.5833V8.56235H21.1443ZM25.118 6.23535V15.8553H22.557V6.23535H25.118ZM30.8726 13.6713V15.8553H29.8196C28.9269 15.8553 28.2293 15.6343 27.7266 15.1923C27.2239 14.7503 26.9726 14.018 26.9726 12.9953V10.6943H26.0366V8.56235H26.9726V6.79435H29.5336V8.56235H30.8466V10.6943H29.5336V13.0473C29.5336 13.2727 29.5813 13.433 29.6766 13.5283C29.7806 13.6237 29.9496 13.6713 30.1836 13.6713H30.8726Z" fill="#28A47E"/>
</g>
</svg>
